<svg version="1.1" id="Layer_1" xmlns="http://www.w3.org/2000/svg" xmlns:xlink="http://www.w3.org/1999/xlink" x="0px" y="0px" width="91.696px" height="46.249px" viewBox="0 0 91.696 46.249" xml:space="preserve">
<path fill="#FFFFFF" d="M76.92,44.45c-0.375,0.016-0.745-0.086-1.059-0.292c-0.284-0.206-0.485-0.506-0.568-0.847l-1.092,0.498H74.2&#xA;&#x9;c0.113,0.561,0.435,1.058,0.899,1.393c0.521,0.343,1.138,0.514,1.762,0.487c0.742,0.039,1.471-0.209,2.034-0.694&#xA;&#x9;c0.511-0.485,0.786-1.168,0.753-1.872c0.017-0.492-0.149-0.973-0.466-1.35c-0.489-0.482-1.072-0.859-1.712-1.108&#xA;&#x9;c-0.041-0.018-0.099-0.045-0.172-0.078c-0.95-0.431-1.425-0.896-1.425-1.393c-0.013-0.29,0.107-0.569,0.325-0.76&#xA;&#x9;c0.247-0.199,0.558-0.3,0.875-0.283c0.244-0.004,0.484,0.058,0.694,0.181c0.226,0.146,0.415,0.342,0.554,0.572l1.069-0.543&#xA;&#x9;c-0.154-0.434-0.463-0.797-0.868-1.017c-0.48-0.251-1.016-0.373-1.557-0.355c-0.669-0.03-1.323,0.194-1.832,0.628&#xA;&#x9;c-0.464,0.417-0.72,1.018-0.698,1.642c-0.013,0.483,0.151,0.954,0.463,1.324c0.537,0.516,1.166,0.926,1.854,1.211&#xA;&#x9;c0.062,0.025,0.15,0.066,0.265,0.123c0.82,0.381,1.23,0.816,1.23,1.303c0.015,0.337-0.116,0.664-0.36,0.896&#xA;&#x9;C77.621,44.349,77.274,44.468,76.92,44.45z"/>
<path fill="#FFFFFF" d="M76.148,19.29c0.339,0.235,0.719,0.404,1.121,0.498c0.428,0.101,0.866,0.152,1.306,0.151&#xA;&#x9;c0.821,0.054,1.631-0.213,2.26-0.743c0.562-0.586,0.85-1.384,0.792-2.194l-0.001-0.001c-0.001-0.09,0.004-0.18,0.013-0.27&#xA;&#x9;c0.008-0.122,0.008-0.245,0-0.368c-0.007-0.114-0.031-0.226-0.073-0.332c-0.023-0.082-0.095-0.14-0.18-0.144&#xA;&#x9;c-0.079,0-0.154,0.035-0.205,0.096c-0.058,0.067-0.103,0.144-0.132,0.227c-0.033,0.083-0.056,0.17-0.072,0.258&#xA;&#x9;c-0.015,0.075-0.022,0.151-0.022,0.227c-0.001,0.08,0.002,0.16,0.011,0.239c0.009,0.079,0.013,0.158,0.012,0.237&#xA;&#x9;c0,0.291-0.053,0.58-0.157,0.852c-0.101,0.264-0.248,0.508-0.433,0.722c-0.185,0.216-0.414,0.389-0.673,0.508&#xA;&#x9;c-0.266,0.129-0.558,0.195-0.853,0.193c-0.308,0.013-0.614-0.053-0.888-0.193c-0.218-0.116-0.397-0.292-0.517-0.508&#xA;&#x9;c-0.125-0.225-0.21-0.469-0.253-0.722c-0.048-0.282-0.072-0.567-0.072-0.852V3.392c0.004-0.251,0.028-0.501,0.072-0.748&#xA;&#x9;c0.046-0.268,0.131-0.528,0.253-0.771c0.118-0.232,0.282-0.437,0.482-0.602c0.206-0.168,0.466-0.256,0.731-0.246&#xA;&#x9;c0.182,0.001,0.363,0.028,0.538,0.078c0.195,0.052,0.382,0.129,0.557,0.227c0.163,0.093,0.312,0.208,0.444,0.341&#xA;&#x9;c0.124,0.127,0.208,0.288,0.242,0.462c-0.275,0.387-0.425,0.848-0.431,1.322c0,0.131,0.008,0.294,0.022,0.499&#xA;&#x9;c0.015,0.205,0.052,0.407,0.108,0.605c0.05,0.181,0.131,0.353,0.239,0.507c0.103,0.142,0.271,0.222,0.446,0.213&#xA;&#x9;C81,5.276,81.154,5.198,81.254,5.066c0.125-0.15,0.222-0.322,0.286-0.507c0.074-0.192,0.127-0.391,0.159-0.594&#xA;&#x9;c0.029-0.16,0.045-0.322,0.048-0.484c0.006-0.404-0.077-0.804-0.241-1.173c-0.152-0.343-0.377-0.65-0.66-0.897&#xA;&#x9;c-0.291-0.251-0.624-0.447-0.984-0.581c-0.381-0.144-0.784-0.217-1.191-0.215c-0.464,0-0.925,0.068-1.369,0.204&#xA;&#x9;C76.887,0.943,76.5,1.145,76.16,1.413c-0.332,0.263-0.603,0.594-0.795,0.971c-0.205,0.415-0.307,0.874-0.299,1.337v13.451&#xA;&#x9;c-0.011,0.437,0.092,0.868,0.299,1.252C75.56,18.766,75.827,19.062,76.148,19.29z"/>
<polygon fill="#FFFFFF" points="38.351,33.872 38.351,26.727 40.575,26.727 40.575,25.584 34.746,25.584 34.746,26.727 &#xA;&#x9;36.982,26.727 36.982,33.872"/>
<path fill="#FFFFFF" d="M84.221,1.045c0.109,0.03,0.208,0.087,0.29,0.165c0.082,0.09,0.125,0.211,0.118,0.333l0.025,17.188&#xA;&#x9;c0.009,0.119-0.035,0.235-0.121,0.318c-0.084,0.074-0.183,0.13-0.289,0.166c-0.119,0.041-0.244,0.065-0.37,0.07&#xA;&#x9;c-0.138,0.012-0.258,0.021-0.35,0.038v0.282l0.002,0.001h4.614c0.818,0.056,1.625-0.212,2.247-0.746&#xA;&#x9;c0.556-0.589,0.839-1.384,0.78-2.191c0-0.045,0.005-0.132,0.012-0.258c0.009-0.126,0.009-0.252,0-0.378&#xA;&#x9;c-0.005-0.114-0.028-0.227-0.07-0.333c-0.023-0.083-0.098-0.14-0.183-0.142c-0.079-0.001-0.154,0.034-0.204,0.095&#xA;&#x9;c-0.059,0.065-0.104,0.141-0.131,0.224c-0.033,0.088-0.058,0.179-0.076,0.272c-0.013,0.078-0.021,0.156-0.023,0.235&#xA;&#x9;c0,0.076,0.005,0.152,0.014,0.227c0.004,0.072,0.009,0.149,0.009,0.227c0.003,0.291-0.05,0.58-0.156,0.851&#xA;&#x9;c-0.099,0.262-0.246,0.503-0.434,0.711c-0.188,0.209-0.416,0.379-0.67,0.498c-0.266,0.128-0.559,0.192-0.855,0.189&#xA;&#x9;c-0.276,0.008-0.547-0.066-0.781-0.211c-0.215-0.144-0.398-0.329-0.54-0.545c-0.146-0.225-0.252-0.474-0.314-0.736&#xA;&#x9;c-0.061-0.257-0.093-0.519-0.095-0.783V11.44c-0.002-0.184,0.023-0.367,0.072-0.544c0.061-0.176,0.18-0.326,0.337-0.427&#xA;&#x9;c0.05-0.094,0.137-0.163,0.24-0.189c0.14-0.05,0.285-0.085,0.433-0.104c0.15-0.025,0.301-0.041,0.452-0.049&#xA;&#x9;c0.149-0.006,0.251-0.012,0.316-0.012c0.098,0,0.2,0.004,0.303,0.012c0.103,0.007,0.205,0.012,0.301,0.012l-0.023-0.52&#xA;&#x9;c-0.242,0.016-0.503,0.024-0.782,0.024c-0.264,0.001-0.526-0.031-0.782-0.096c-0.232-0.057-0.441-0.181-0.603-0.356&#xA;&#x9;c-0.172-0.213-0.256-0.484-0.237-0.757V3.416c0-0.255,0.023-0.509,0.068-0.76c0.049-0.264,0.134-0.52,0.253-0.76&#xA;&#x9;c0.117-0.228,0.281-0.43,0.481-0.59c0.211-0.162,0.471-0.246,0.736-0.238c0.18,0.003,0.358,0.031,0.53,0.081&#xA;&#x9;c0.188,0.056,0.369,0.132,0.541,0.227c0.166,0.094,0.315,0.215,0.443,0.356c0.118,0.125,0.201,0.28,0.24,0.448&#xA;&#x9;c-0.118,0.201-0.219,0.411-0.3,0.629c-0.076,0.225-0.112,0.462-0.107,0.7c0,0.124,0.005,0.291,0.025,0.498&#xA;&#x9;c0.013,0.199,0.044,0.397,0.093,0.59c0.045,0.178,0.122,0.346,0.227,0.496c0.102,0.142,0.271,0.223,0.446,0.214&#xA;&#x9;c0.167-0.002,0.323-0.081,0.423-0.214c0.123-0.152,0.22-0.323,0.288-0.507c0.069-0.192,0.121-0.39,0.155-0.592&#xA;&#x9;c0.027-0.161,0.043-0.323,0.046-0.486c0.007-0.399-0.075-0.795-0.24-1.159c-0.154-0.34-0.379-0.643-0.659-0.89&#xA;&#x9;c-0.289-0.248-0.619-0.445-0.975-0.581c-0.376-0.143-0.775-0.215-1.177-0.212h-4.733v0.282c0.111,0.018,0.232,0.031,0.356,0.038&#xA;&#x9;C83.98,0.994,84.102,1.014,84.221,1.045z"/>
<polygon fill="#FFFFFF" points="68.012,45.47 68.012,38.325 70.235,38.325 70.235,37.182 64.408,37.182 64.408,38.325 &#xA;&#x9;66.644,38.325 66.644,45.47"/>
<polygon fill="#FFFFFF" points="22.173,45.47 22.174,45.472 26.868,45.472 26.868,44.266 23.539,44.266 23.539,41.587 &#xA;&#x9;26.868,41.587 26.868,40.404 23.539,40.404 23.539,38.326 26.868,38.326 26.868,37.182 22.173,37.182"/>
<polygon fill="#FFFFFF" points="12.343,25.584 12.343,33.872 13.711,33.872 13.711,29.847 17.849,29.847 17.849,33.872 &#xA;&#x9;19.217,33.872 19.217,25.584 17.849,25.584 17.849,28.641 13.711,28.641 13.711,25.584"/>
<polygon fill="#FFFFFF" points="52.592,25.584 52.592,33.872 57.018,33.872 57.018,32.667 53.96,32.667 53.96,25.584"/>
<path fill="#FFFFFF" d="M12.18,45.47h1.281v-3.708h0.155l2.8,3.71h1.548L15.067,41.7c0.55-0.034,1.066-0.276,1.443-0.677&#xA;&#x9;c0.348-0.443,0.521-0.999,0.488-1.561c0.004-0.359-0.068-0.714-0.213-1.042c-0.133-0.305-0.341-0.571-0.605-0.774&#xA;&#x9;c-0.235-0.175-0.504-0.297-0.79-0.358c-0.429-0.083-0.865-0.119-1.302-0.108H12.18V45.47z M13.795,38.335&#xA;&#x9;c0.489-0.045,0.982,0.052,1.417,0.281c0.277,0.24,0.42,0.6,0.381,0.965c0.037,0.335-0.096,0.667-0.356,0.883&#xA;&#x9;c-0.45,0.21-0.948,0.296-1.443,0.249h-0.245v-2.378H13.795z"/>
<path fill="#FFFFFF" d="M60.115,39.462c0.004-0.359-0.069-0.714-0.213-1.042c-0.133-0.305-0.341-0.571-0.605-0.774&#xA;&#x9;c-0.235-0.175-0.504-0.297-0.79-0.358c-0.429-0.083-0.865-0.119-1.302-0.108h-1.907v8.29h1.284v-3.709h0.154l2.8,3.71h1.545&#xA;&#x9;l-2.897-3.772c0.549-0.034,1.066-0.276,1.443-0.677C59.974,40.579,60.148,40.024,60.115,39.462z M58.358,40.464&#xA;&#x9;c-0.45,0.21-0.948,0.296-1.443,0.249h-0.247c0,0,0-2.379,0-2.378h0.247c0.489-0.045,0.982,0.052,1.417,0.281&#xA;&#x9;c0.278,0.24,0.421,0.6,0.382,0.965C58.751,39.916,58.618,40.248,58.358,40.464z"/>
<path fill="#FFFFFF" d="M47.555,37.315c-0.548-0.216-1.132-0.326-1.721-0.323c-0.593-0.002-1.18,0.107-1.731,0.323&#xA;&#x9;c-0.543,0.215-1.039,0.534-1.459,0.941c-0.418,0.399-0.751,0.879-0.977,1.411c-0.686,1.633-0.298,3.52,0.977,4.75&#xA;&#x9;c0.418,0.406,0.913,0.727,1.455,0.942c1.107,0.442,2.34,0.443,3.447,0.005c0.544-0.22,1.041-0.541,1.465-0.946&#xA;&#x9;c0.419-0.396,0.752-0.874,0.979-1.404c0.226-0.528,0.341-1.097,0.337-1.671l0.001-0.002c0.003-0.573-0.112-1.14-0.337-1.667&#xA;&#x9;c-0.228-0.534-0.561-1.016-0.979-1.419C48.592,37.85,48.097,37.531,47.555,37.315z M48.671,42.527&#xA;&#x9;c-0.314,0.757-0.913,1.36-1.667,1.68c-0.37,0.154-0.768,0.233-1.169,0.231c-1.25,0.008-2.379-0.749-2.845-1.909&#xA;&#x9;c-0.155-0.377-0.233-0.781-0.231-1.189c-0.002-0.411,0.076-0.818,0.231-1.199c0.151-0.376,0.378-0.717,0.666-1.002&#xA;&#x9;c0.877-0.89,2.207-1.156,3.359-0.672c0.371,0.155,0.705,0.383,0.984,0.672c0.288,0.288,0.516,0.631,0.67,1.008&#xA;&#x9;c0.156,0.379,0.235,0.785,0.233,1.194l0.002-0.001C48.905,41.747,48.826,42.151,48.671,42.527z"/>
<path fill="#FFFFFF" d="M29.355,25.718c-1.11-0.43-2.341-0.43-3.451,0c-0.543,0.214-1.039,0.534-1.459,0.94&#xA;&#x9;c-0.418,0.399-0.751,0.879-0.977,1.411c-0.685,1.633-0.297,3.52,0.977,4.75c0.419,0.406,0.914,0.726,1.456,0.942&#xA;&#x9;c1.106,0.441,2.339,0.443,3.446,0.005c0.544-0.22,1.042-0.541,1.466-0.946c0.845-0.799,1.321-1.912,1.315-3.075&#xA;&#x9;c0.003-0.574-0.112-1.141-0.337-1.668c-0.228-0.534-0.561-1.016-0.979-1.419C30.392,26.253,29.897,25.934,29.355,25.718z&#xA;&#x9; M28.805,32.611c-0.37,0.154-0.768,0.233-1.169,0.231c-1.25,0.008-2.378-0.749-2.845-1.909c-0.154-0.377-0.232-0.781-0.23-1.189&#xA;&#x9;c-0.003-0.411,0.076-0.818,0.23-1.199c0.151-0.377,0.378-0.718,0.666-1.003c0.877-0.89,2.207-1.156,3.359-0.672&#xA;&#x9;c0.371,0.155,0.705,0.383,0.984,0.672c0.288,0.288,0.516,0.631,0.67,1.008c0.156,0.379,0.235,0.785,0.233,1.194h0.001&#xA;&#x9;C30.708,30.996,29.959,32.126,28.805,32.611z"/>
<path fill="#FFFFFF" d="M22.189,8.514c0.245,0.369,0.374,0.802,0.371,1.245v8.973c0.012,0.144-0.047,0.285-0.158,0.378&#xA;&#x9;c-0.11,0.081-0.237,0.137-0.371,0.164c-0.15,0.032-0.303,0.048-0.456,0.048c-0.138-0.001-0.275,0.007-0.412,0.025v0.261h4.806&#xA;&#x9;v-0.261c-0.148-0.018-0.296-0.026-0.445-0.025c-0.156,0.001-0.312-0.011-0.466-0.035c-0.137-0.019-0.266-0.077-0.372-0.166&#xA;&#x9;c-0.11-0.099-0.168-0.243-0.158-0.39v-6.485c0-0.35,0.006-0.642,0.018-0.877c-0.006-0.203,0.043-0.404,0.14-0.582&#xA;&#x9;c0.101-0.16,0.259-0.274,0.443-0.319c0.307-0.075,0.623-0.106,0.939-0.094c0.187,0,0.382,0.009,0.578,0.023&#xA;&#x9;c0.177,0.012,0.351,0.057,0.513,0.131c0.15,0.067,0.276,0.178,0.36,0.319c0.099,0.181,0.145,0.385,0.134,0.591v8.17h3.462v-0.261&#xA;&#x9;c-0.223-0.032-0.432-0.052-0.614-0.06c-0.156-0.002-0.31-0.034-0.454-0.094c-0.123-0.058-0.221-0.159-0.277-0.284&#xA;&#x9;c-0.078-0.2-0.111-0.414-0.098-0.628v-6.345l-0.001,0.002c0.009-0.297-0.062-0.591-0.205-0.852c-0.13-0.232-0.312-0.431-0.532-0.581&#xA;&#x9;c-0.224-0.155-0.474-0.267-0.739-0.33c-0.288-0.074-0.581-0.126-0.877-0.155c0.617-0.102,1.196-0.363,1.681-0.757&#xA;&#x9;c0.463-0.414,0.711-1.017,0.672-1.637l-0.022-3.788c0.007-0.465-0.088-0.926-0.277-1.351c-0.177-0.378-0.431-0.716-0.745-0.992&#xA;&#x9;c-0.325-0.276-0.701-0.485-1.107-0.617c-0.438-0.144-0.896-0.215-1.356-0.212C25.767,0.662,25.372,0.73,25,0.868&#xA;&#x9;c-0.35,0.127-0.673,0.32-0.951,0.568C23.775,1.68,23.555,1.977,23.4,2.31c-0.166,0.359-0.249,0.751-0.243,1.147&#xA;&#x9;c0.004,0.164,0.021,0.327,0.05,0.488c0.032,0.198,0.085,0.393,0.157,0.581c0.067,0.179,0.161,0.346,0.278,0.497&#xA;&#x9;c0.093,0.133,0.245,0.212,0.407,0.212c0.167,0.005,0.325-0.075,0.418-0.213c0.11-0.149,0.191-0.318,0.239-0.497&#xA;&#x9;c0.056-0.189,0.093-0.384,0.11-0.581c0.017-0.196,0.023-0.357,0.023-0.488c0.005-0.237-0.032-0.473-0.11-0.697&#xA;&#x9;c-0.078-0.21-0.177-0.412-0.295-0.602c0.031-0.174,0.113-0.335,0.236-0.463c0.131-0.136,0.281-0.251,0.446-0.343&#xA;&#x9;c0.168-0.093,0.346-0.168,0.53-0.224c0.167-0.052,0.341-0.08,0.516-0.082c0.236-0.005,0.467,0.065,0.66,0.202&#xA;&#x9;c0.185,0.138,0.341,0.311,0.459,0.509c0.121,0.212,0.214,0.439,0.274,0.676c0.061,0.219,0.094,0.445,0.099,0.672v5.59&#xA;&#x9;c0.014,0.218-0.045,0.434-0.167,0.615c-0.111,0.14-0.256,0.25-0.421,0.32c-0.182,0.072-0.373,0.116-0.568,0.13&#xA;&#x9;c-0.206,0.015-0.402,0.02-0.6,0.02c-0.113,0-0.249-0.003-0.416-0.01c-0.136,0.004-0.27-0.041-0.375-0.128&#xA;&#x9;c-0.366-0.302-0.687-0.577-0.96-0.832c-0.262-0.242-0.544-0.463-0.842-0.66c-0.297-0.192-0.622-0.336-0.963-0.426&#xA;&#x9;C21.91,7.618,21.466,7.57,21.021,7.58v0.38C21.481,7.927,21.924,8.138,22.189,8.514z"/>
<path fill="#FFFFFF" d="M32.053,40.584c0.537,0.516,1.166,0.926,1.854,1.211c0.061,0.025,0.149,0.066,0.265,0.123&#xA;&#x9;c0.82,0.381,1.23,0.816,1.23,1.303c0.015,0.337-0.116,0.664-0.36,0.896c-0.266,0.233-0.613,0.352-0.967,0.334&#xA;&#x9;c-0.375,0.016-0.745-0.086-1.059-0.292c-0.284-0.206-0.485-0.506-0.568-0.847l-1.092,0.498l-0.002,0.003&#xA;&#x9;c0.114,0.561,0.435,1.058,0.9,1.393c0.522,0.343,1.138,0.514,1.762,0.487c0.742,0.039,1.471-0.209,2.034-0.694&#xA;&#x9;c0.511-0.485,0.786-1.168,0.753-1.872c0.017-0.492-0.149-0.973-0.466-1.35c-0.49-0.481-1.072-0.858-1.712-1.108&#xA;&#x9;c-0.041-0.018-0.099-0.045-0.172-0.078c-0.95-0.431-1.425-0.896-1.425-1.393c-0.011-0.289,0.108-0.568,0.325-0.759&#xA;&#x9;c0.247-0.199,0.559-0.299,0.876-0.283c0.243-0.005,0.483,0.058,0.693,0.181c0.226,0.145,0.417,0.341,0.556,0.571l1.069-0.543&#xA;&#x9;c-0.154-0.435-0.464-0.797-0.87-1.017c-0.479-0.252-1.015-0.375-1.556-0.358c-0.669-0.03-1.323,0.194-1.832,0.628&#xA;&#x9;c-0.465,0.417-0.72,1.018-0.698,1.642C31.577,39.743,31.742,40.214,32.053,40.584z"/>
<path fill="#FFFFFF" d="M12.198,1.045c0.109,0.029,0.21,0.086,0.291,0.165c0.082,0.091,0.123,0.211,0.114,0.333l0.024,17.187&#xA;&#x9;c0.011,0.118-0.033,0.235-0.118,0.318c-0.084,0.074-0.182,0.131-0.288,0.166c-0.12,0.041-0.247,0.065-0.374,0.07&#xA;&#x9;c-0.135,0.012-0.253,0.021-0.346,0.038v0.289h4.614c0.819,0.054,1.626-0.216,2.247-0.752c0.555-0.589,0.838-1.384,0.78-2.191&#xA;&#x9;c0-0.045,0.004-0.132,0.013-0.258c0.007-0.126,0.007-0.252,0-0.378c-0.006-0.114-0.03-0.227-0.072-0.333&#xA;&#x9;c-0.023-0.082-0.096-0.139-0.181-0.142c-0.079,0-0.154,0.035-0.205,0.095c-0.058,0.065-0.102,0.142-0.131,0.224&#xA;&#x9;c-0.034,0.088-0.058,0.179-0.072,0.272c-0.014,0.077-0.023,0.156-0.025,0.235c0,0.082,0.004,0.153,0.011,0.227&#xA;&#x9;c0.009,0.075,0.013,0.151,0.013,0.227c0.001,0.291-0.053,0.58-0.159,0.851c-0.099,0.261-0.245,0.502-0.432,0.711&#xA;&#x9;c-0.188,0.209-0.417,0.379-0.671,0.499c-0.265,0.128-0.556,0.192-0.851,0.189c-0.277,0.008-0.55-0.066-0.784-0.213&#xA;&#x9;c-0.215-0.143-0.399-0.328-0.54-0.545c-0.147-0.225-0.254-0.474-0.314-0.736c-0.062-0.257-0.094-0.519-0.096-0.783v-5.372&#xA;&#x9;c-0.003-0.184,0.021-0.367,0.073-0.544c0.062-0.176,0.181-0.326,0.338-0.427c0.049-0.094,0.137-0.163,0.24-0.189&#xA;&#x9;c0.14-0.05,0.285-0.085,0.433-0.104c0.15-0.025,0.302-0.041,0.454-0.049c0.147-0.006,0.254-0.012,0.316-0.012&#xA;&#x9;c0.094,0,0.197,0.005,0.3,0.013c0.103,0.007,0.203,0.012,0.298,0.012l-0.02-0.52c-0.24,0.016-0.501,0.024-0.783,0.024&#xA;&#x9;c-0.264,0.001-0.526-0.032-0.782-0.096c-0.23-0.058-0.439-0.182-0.601-0.356c-0.174-0.212-0.26-0.483-0.24-0.757V3.415&#xA;&#x9;c0.002-0.255,0.026-0.509,0.073-0.759c0.049-0.264,0.133-0.519,0.25-0.76c0.118-0.229,0.283-0.43,0.485-0.589&#xA;&#x9;c0.209-0.162,0.467-0.246,0.731-0.238c0.179,0.003,0.356,0.029,0.528,0.079c0.189,0.054,0.371,0.131,0.542,0.227&#xA;&#x9;c0.166,0.094,0.316,0.214,0.443,0.356c0.121,0.124,0.204,0.279,0.242,0.448c-0.119,0.201-0.22,0.411-0.305,0.628&#xA;&#x9;c-0.076,0.225-0.113,0.462-0.108,0.7c0,0.125,0.009,0.292,0.025,0.499c0.016,0.199,0.048,0.396,0.098,0.59&#xA;&#x9;c0.042,0.179,0.119,0.347,0.227,0.496c0.102,0.142,0.27,0.223,0.445,0.214c0.166-0.003,0.322-0.082,0.422-0.214&#xA;&#x9;c0.124-0.15,0.221-0.322,0.286-0.506c0.07-0.192,0.123-0.39,0.156-0.592c0.028-0.161,0.045-0.323,0.048-0.486&#xA;&#x9;c0.006-0.399-0.075-0.795-0.238-1.159c-0.154-0.34-0.38-0.644-0.661-0.89c-0.289-0.248-0.619-0.445-0.975-0.581&#xA;&#x9;c-0.376-0.143-0.774-0.215-1.176-0.212h-4.734v0.282c0.115,0.018,0.232,0.031,0.358,0.038C11.957,0.994,12.079,1.014,12.198,1.045z"/>
<path fill="#FFFFFF" d="M0.155,1.162C0.219,1.164,0.283,1.17,0.347,1.179C0.429,1.193,0.51,1.213,0.59,1.239&#xA;&#x9;c0.226,0.082,0.431,0.218,0.594,0.396C1.416,1.891,1.547,2.224,1.551,2.57v15.862c-0.002,0.072-0.014,0.144-0.034,0.213&#xA;&#x9;c-0.047,0.184-0.15,0.35-0.294,0.474c-0.171,0.148-0.389,0.232-0.616,0.235H0.346v0.238h4.08v-0.238H4.412&#xA;&#x9;c-0.228-0.003-0.449-0.086-0.622-0.235c-0.143-0.125-0.246-0.29-0.293-0.474c-0.02-0.072-0.031-0.146-0.033-0.221v-7.262&#xA;&#x9;c0.004-0.025,0.007-0.05,0.008-0.076c0.04-0.279,0.202-0.526,0.443-0.674c0.019-0.012,0.042-0.023,0.065-0.035&#xA;&#x9;C4.12,10.3,4.27,10.241,4.425,10.2c0.315-0.077,0.644-0.077,0.959,0c0.15,0.038,0.295,0.095,0.431,0.169l-0.003-0.002&#xA;&#x9;c0.033,0.017,0.068,0.038,0.096,0.053c0.232,0.149,0.387,0.392,0.425,0.666l0.01,0.948v6.397c-0.005,0.265-0.124,0.515-0.325,0.687&#xA;&#x9;c-0.172,0.149-0.391,0.232-0.619,0.235H5.384v0.238h4.077v-0.238H9.206c-0.228-0.003-0.448-0.086-0.62-0.235&#xA;&#x9;c-0.144-0.125-0.246-0.29-0.294-0.474c-0.02-0.075-0.03-0.152-0.03-0.229V2.432C8.32,1.881,8.695,1.415,9.221,1.239&#xA;&#x9;c0.078-0.027,0.158-0.047,0.239-0.06c0.063-0.01,0.126-0.016,0.189-0.017h0.052V0.691h-0.48C8.657,0.69,8.105,0.854,7.632,1.163&#xA;&#x9;c-0.117,0.074-0.228,0.157-0.33,0.25C7.226,1.486,7.15,1.558,7.08,1.635C6.988,1.738,6.902,1.847,6.822,1.96&#xA;&#x9;c-0.13,0.194-0.235,0.403-0.313,0.623C6.4,2.884,6.344,3.202,6.343,3.522v5.309C6.328,8.96,6.287,9.083,6.222,9.195&#xA;&#x9;C6.058,9.474,5.766,9.652,5.443,9.668H4.375C4.053,9.651,3.761,9.473,3.598,9.195C3.514,9.053,3.47,8.89,3.47,8.725L3.463,8.249&#xA;&#x9;V3.548c0-0.006,0.003-0.012,0.003-0.02V3.523c0-0.003-0.001-0.006-0.003-0.008C3.464,3.197,3.409,2.882,3.3,2.583&#xA;&#x9;c-0.078-0.22-0.184-0.43-0.314-0.624C2.908,1.845,2.823,1.737,2.731,1.634C2.66,1.558,2.585,1.483,2.508,1.415&#xA;&#x9;C2.403,1.323,2.291,1.238,2.173,1.163C1.979,1.035,1.77,0.931,1.551,0.853c-0.31-0.106-0.635-0.16-0.962-0.16V0.691H0.106v0.471&#xA;&#x9;H0.155z"/>
<path fill="#FFFFFF" d="M34.308,2.016c0.098,0.298,0.151,0.61,0.157,0.924c0.009,0.331,0.012,0.637,0.012,0.923v14.869&#xA;&#x9;c0.013,0.143-0.045,0.284-0.154,0.378c-0.11,0.082-0.238,0.135-0.373,0.155c-0.154,0.023-0.31,0.035-0.466,0.034&#xA;&#x9;c-0.142-0.003-0.284,0.005-0.425,0.024v0.286h4.854v-0.286c-0.159-0.018-0.32-0.026-0.48-0.024&#xA;&#x9;c-0.166,0.001-0.331-0.018-0.492-0.058c-0.146-0.034-0.28-0.108-0.387-0.214c-0.108-0.119-0.163-0.277-0.154-0.437V3.104&#xA;&#x9;l-0.001,0.002c0.007-0.388-0.116-0.767-0.35-1.076c-0.237-0.312-0.534-0.574-0.874-0.77c-0.357-0.207-0.743-0.359-1.145-0.451&#xA;&#x9;c-0.373-0.092-0.755-0.14-1.139-0.143v0.378c0.338-0.025,0.673,0.072,0.946,0.273C34.058,1.5,34.222,1.743,34.308,2.016z"/>
<path fill="#FFFFFF" d="M40.814,1.176c0.304,0.01,0.623,0.025,0.961,0.045c0.315,0.024,0.629,0.063,0.94,0.119&#xA;&#x9;c0.192,0.016,0.374,0.087,0.526,0.205c0.122,0.142,0.223,0.301,0.299,0.472c0.084,0.161,0.13,0.34,0.134,0.522v16.238&#xA;&#x9;c0.009,0.144-0.06,0.281-0.181,0.358c-0.123,0.081-0.263,0.133-0.409,0.154c-0.158,0.024-0.319,0.036-0.479,0.035h-0.393v0.286&#xA;&#x9;h4.918v-0.285c-0.146-0.017-0.295-0.021-0.442-0.011c-0.161,0.008-0.323,0-0.482-0.024c-0.139-0.018-0.271-0.071-0.384-0.154&#xA;&#x9;c-0.113-0.102-0.17-0.251-0.155-0.402L45.69,2.541c0.007-0.186,0.052-0.368,0.132-0.536c0.074-0.171,0.166-0.334,0.275-0.485&#xA;&#x9;c0.149-0.115,0.331-0.181,0.519-0.189c0.282-0.049,0.575-0.084,0.885-0.11c0.318-0.021,0.616-0.038,0.894-0.046&#xA;&#x9;c0.278-0.008,0.469-0.011,0.563-0.011l0.749,0.026l-0.026-0.522h-9.996V1.19l0.53-0.025C40.306,1.165,40.509,1.166,40.814,1.176z"/>
<path fill="#FFFFFF" d="M64.465,1.896c0.121,0.256,0.21,0.527,0.265,0.805c0.054,0.258,0.082,0.519,0.084,0.782v14.823&#xA;&#x9;c0.007,0.183-0.013,0.366-0.058,0.544c-0.032,0.114-0.101,0.215-0.196,0.286c-0.104,0.07-0.223,0.115-0.347,0.131&#xA;&#x9;c-0.145,0.022-0.318,0.05-0.527,0.082v0.261h2.953v-0.26c-0.21-0.032-0.39-0.058-0.541-0.073c-0.131-0.008-0.258-0.043-0.374-0.104&#xA;&#x9;c-0.102-0.064-0.178-0.161-0.216-0.275c-0.055-0.184-0.079-0.376-0.071-0.568V5.588c0.08,0.084,0.152,0.176,0.216,0.273&#xA;&#x9;c0.066,0.093,0.122,0.191,0.169,0.294l3.218,10.989c0.093,0.338,0.213,0.667,0.361,0.984c0.136,0.295,0.314,0.57,0.527,0.816&#xA;&#x9;c0.206,0.235,0.46,0.424,0.744,0.555c0.327,0.142,0.681,0.211,1.037,0.201h0.287c0.098,0,0.195-0.016,0.288-0.046l-0.189-0.332&#xA;&#x9;c-0.112-0.125-0.184-0.281-0.207-0.448c-0.058-0.249-0.098-0.502-0.12-0.757c-0.024-0.271-0.044-0.524-0.05-0.76&#xA;&#x9;c-0.006-0.236-0.009-0.401-0.009-0.496V6.279c0-0.191-0.003-0.472,0.009-0.842c0.012-0.37,0.021-0.764,0.038-1.183&#xA;&#x9;c0.018-0.419,0.046-0.815,0.084-1.185c0.022-0.277,0.075-0.551,0.158-0.816c0.108-0.292,0.275-0.558,0.492-0.781&#xA;&#x9;c0.222-0.224,0.502-0.379,0.809-0.448V0.618c-0.389,0.038-0.764,0.168-1.098,0.379c-0.307,0.199-0.568,0.461-0.767,0.769&#xA;&#x9;c-0.204,0.313-0.359,0.656-0.458,1.017c-0.103,0.365-0.156,0.744-0.156,1.124v10.894c-0.024,0.046-0.044,0.093-0.059,0.142&#xA;&#x9;c-0.011,0.052-0.056,0.09-0.109,0.094c-0.066-0.001-0.123-0.044-0.143-0.106c-0.035-0.072-0.06-0.123-0.073-0.154L67.05,2.987&#xA;&#x9;c-0.107-0.394-0.3-0.758-0.565-1.068c-0.262-0.296-0.571-0.547-0.914-0.744c-0.352-0.2-0.733-0.344-1.129-0.429&#xA;&#x9;c-0.399-0.084-0.806-0.126-1.214-0.128v0.38c0.276-0.01,0.546,0.083,0.757,0.26C64.188,1.435,64.352,1.652,64.465,1.896z"/>
<path fill="#FFFFFF" d="M60.233,27.663c-0.014,0.483,0.151,0.954,0.462,1.324c0.537,0.516,1.166,0.926,1.854,1.211&#xA;&#x9;c0.061,0.025,0.15,0.066,0.265,0.123c0.82,0.382,1.23,0.816,1.23,1.303c0.015,0.337-0.116,0.663-0.36,0.896&#xA;&#x9;c-0.267,0.232-0.613,0.352-0.967,0.334c-0.375,0.016-0.745-0.086-1.059-0.292c-0.284-0.206-0.485-0.506-0.568-0.847l-1.092,0.498&#xA;&#x9;l-0.001,0.002c0.114,0.561,0.436,1.058,0.9,1.393c0.522,0.343,1.138,0.514,1.762,0.487c0.742,0.04,1.471-0.209,2.034-0.693&#xA;&#x9;c0.511-0.484,0.786-1.168,0.753-1.872c0.017-0.492-0.149-0.973-0.466-1.35c-0.49-0.482-1.073-0.858-1.713-1.108&#xA;&#x9;c-0.041-0.018-0.099-0.045-0.172-0.078c-0.95-0.432-1.425-0.896-1.425-1.393c-0.012-0.29,0.108-0.569,0.325-0.76&#xA;&#x9;c0.247-0.198,0.559-0.299,0.876-0.283c0.243-0.005,0.483,0.058,0.693,0.181c0.226,0.146,0.416,0.342,0.555,0.572l1.069-0.543&#xA;&#x9;c-0.153-0.436-0.462-0.8-0.868-1.021c-0.48-0.251-1.016-0.373-1.557-0.355c-0.668-0.03-1.323,0.195-1.832,0.629&#xA;&#x9;C60.467,26.438,60.211,27.039,60.233,27.663z"/>
<path fill="#FFFFFF" d="M73.999,28.841l0.341,0.361c-0.544,0.308-1.027,0.715-1.425,1.198c-0.291,0.373-0.449,0.832-0.449,1.305&#xA;&#x9;c-0.02,0.647,0.245,1.27,0.726,1.704c0.521,0.454,1.197,0.691,1.888,0.662c0.47,0.005,0.937-0.076,1.377-0.24&#xA;&#x9;c0.448-0.177,0.863-0.429,1.227-0.745l0.681,0.788v0.002h1.578l-1.419-1.581c0.218-0.188,0.422-0.392,0.61-0.61&#xA;&#x9;c0.187-0.216,0.357-0.445,0.51-0.687l-0.803-0.843c-0.201,0.275-0.388,0.518-0.564,0.729c-0.177,0.212-0.35,0.402-0.517,0.568&#xA;&#x9;l-1.754-2.005c0.475-0.251,0.899-0.588,1.249-0.994c0.253-0.314,0.391-0.704,0.391-1.107c0.021-0.49-0.185-0.961-0.558-1.278&#xA;&#x9;c-0.428-0.334-0.963-0.502-1.505-0.473c-0.567-0.024-1.123,0.163-1.561,0.524c-0.394,0.331-0.617,0.824-0.605,1.339&#xA;&#x9;c0.001,0.249,0.053,0.496,0.151,0.725C73.672,28.426,73.818,28.649,73.999,28.841z M76.908,32.2&#xA;&#x9;c-0.269,0.237-0.571,0.433-0.898,0.582c-0.273,0.125-0.57,0.19-0.87,0.193c-0.362,0.011-0.712-0.126-0.971-0.378&#xA;&#x9;c-0.256-0.24-0.398-0.577-0.391-0.928c-0.002-0.257,0.083-0.507,0.239-0.711c0.238-0.281,0.522-0.519,0.841-0.704l0.213-0.142&#xA;&#x9;L76.908,32.2z M74.942,26.851c0.169-0.156,0.393-0.238,0.622-0.227c0.212-0.008,0.418,0.072,0.568,0.222&#xA;&#x9;c0.148,0.154,0.227,0.361,0.219,0.575c0.002,0.196-0.054,0.389-0.162,0.553c-0.125,0.18-0.29,0.329-0.482,0.434l-0.311,0.174&#xA;&#x9;l-0.419-0.495c-0.087-0.089-0.156-0.195-0.204-0.31c-0.044-0.109-0.066-0.224-0.066-0.341C74.7,27.216,74.785,27.004,74.942,26.851z"/>
<polygon fill="#FFFFFF" points="48.669,26.728 48.669,25.584 43.974,25.584 43.974,33.872 48.669,33.872 48.669,32.667 &#xA;&#x9;45.34,32.667 45.34,29.988 48.669,29.988 48.669,28.806 45.34,28.806 45.34,26.728"/>
<path fill="#FFFFFF" d="M51.669,4.526c0.065,0.181,0.162,0.35,0.286,0.497c0.1,0.132,0.256,0.21,0.422,0.212&#xA;&#x9;c0.167,0.005,0.325-0.075,0.42-0.212c0.107-0.151,0.189-0.319,0.241-0.497c0.055-0.19,0.091-0.384,0.109-0.581&#xA;&#x9;c0.013-0.196,0.022-0.357,0.022-0.488C53.172,3.228,53.136,3,53.062,2.784c-0.085-0.22-0.194-0.43-0.324-0.626&#xA;&#x9;c0.036-0.17,0.118-0.326,0.238-0.451c0.128-0.143,0.28-0.263,0.448-0.356c0.171-0.094,0.351-0.169,0.538-0.224&#xA;&#x9;c0.172-0.052,0.35-0.08,0.53-0.082c0.393-0.002,0.773,0.136,1.072,0.391c0.308,0.25,0.502,0.614,0.538,1.009l1.181,10.459v0.121&#xA;&#x9;c0.028,0.21-0.025,0.423-0.149,0.594c-0.116,0.129-0.266,0.223-0.432,0.271c-0.187,0.058-0.381,0.086-0.576,0.084h-0.6&#xA;&#x9;c-0.251,0.008-0.496-0.082-0.684-0.249c-0.184-0.164-0.286-0.402-0.278-0.649c0.002-0.511,0.038-1.022,0.108-1.528&#xA;&#x9;c0.073-0.528,0.149-1.063,0.229-1.609c0.08-0.546,0.155-1.087,0.231-1.622c0.066-0.518,0.1-1.04,0.101-1.563&#xA;&#x9;c0-0.131-0.011-0.263-0.034-0.392c0-0.003-0.001-0.006-0.001-0.009c-0.016-0.136-0.138-0.233-0.273-0.218&#xA;&#x9;c-0.091-0.003-0.179,0.036-0.239,0.106c-0.069,0.077-0.123,0.166-0.159,0.263c-0.039,0.104-0.071,0.21-0.096,0.318&#xA;&#x9;c-0.02,0.085-0.032,0.172-0.038,0.26c-0.142,1.327-0.281,2.643-0.419,3.943c-0.138,1.301-0.276,2.616-0.421,3.942&#xA;&#x9;c-0.064,0.6-0.117,1.211-0.155,1.836c-0.041,0.616-0.117,1.229-0.229,1.836c-0.024,0.239-0.17,0.449-0.385,0.555&#xA;&#x9;c-0.213,0.064-0.43,0.116-0.649,0.154v0.261h2.934v-0.263c-0.144-0.016-0.283-0.032-0.421-0.049&#xA;&#x9;c-0.122-0.012-0.242-0.035-0.359-0.072c-0.102-0.03-0.192-0.092-0.255-0.177c-0.071-0.125-0.104-0.268-0.094-0.412&#xA;&#x9;c0-0.503,0.032-1.006,0.094-1.505c0.064-0.499,0.115-0.998,0.145-1.504c-0.003-0.251,0.092-0.492,0.265-0.673&#xA;&#x9;c0.161-0.151,0.355-0.261,0.568-0.32c0.226-0.065,0.459-0.101,0.694-0.108c0.248-0.005,0.479-0.011,0.686-0.011&#xA;&#x9;c0.302-0.001,0.594,0.113,0.815,0.319c0.232,0.193,0.379,0.47,0.41,0.77l0.314,3.102c0.022,0.133-0.019,0.268-0.111,0.367&#xA;&#x9;c-0.096,0.091-0.217,0.153-0.347,0.177c-0.146,0.032-0.294,0.052-0.443,0.06c-0.153,0.008-0.288,0.022-0.398,0.038v0.261h4.83&#xA;&#x9;v-0.258c-0.196-0.016-0.39-0.032-0.589-0.049c-0.18-0.009-0.357-0.045-0.527-0.105c-0.153-0.058-0.29-0.151-0.4-0.273&#xA;&#x9;c-0.123-0.157-0.197-0.346-0.212-0.545L58.025,3.818c-0.061-0.886-0.441-1.72-1.071-2.346c-0.688-0.572-1.569-0.86-2.462-0.804&#xA;&#x9;V0.666c-0.401-0.004-0.799,0.065-1.175,0.202c-0.355,0.125-0.682,0.318-0.963,0.568c-0.272,0.245-0.493,0.543-0.65,0.874&#xA;&#x9;c-0.162,0.36-0.244,0.752-0.238,1.147c0.002,0.164,0.019,0.327,0.048,0.488C51.544,4.144,51.596,4.339,51.669,4.526z"/>
</svg>